<?xml version="1.0" standalone="no"?>
<!DOCTYPE svg PUBLIC "-//W3C//DTD SVG 20010904//EN"
 "http://www.w3.org/TR/2001/REC-SVG-20010904/DTD/svg10.dtd">
<svg version="1.0" xmlns="http://www.w3.org/2000/svg"
 width="16.000000pt" height="16.000000pt" viewBox="0 0 16.000000 16.000000"
 preserveAspectRatio="xMidYMid meet">
<metadata>
Created by potrace 1.11, written by Peter Selinger 2001-2013
</metadata>
<g transform="translate(0.000000,16.000000) scale(0.006154,-0.006154)"
fill="#000000" stroke="none">
<path d="M2113 2560 c-1 -11 2 -20 8 -20 5 0 9 9 9 20 0 11 -4 20 -8 20 -4 0
-8 -9 -9 -20z"/>
<path d="M1951 2544 c-1 -12 -8 -28 -17 -35 -14 -11 -19 -10 -35 10 l-18 23
-23 -24 c-21 -22 -75 -38 -64 -19 3 4 -2 8 -10 8 -8 0 -13 -6 -10 -14 3 -7 1
-13 -5 -13 -6 0 -7 -6 -4 -12 4 -7 -1 -4 -9 6 -9 11 -16 24 -16 30 0 5 -3 7
-6 4 -3 -4 0 -16 6 -28 10 -19 8 -26 -17 -50 -16 -16 -37 -48 -47 -72 -10 -24
-22 -50 -26 -58 -11 -23 -11 -108 0 -115 6 -4 10 -15 10 -26 0 -61 154 -216
191 -193 19 11 57 -6 63 -28 l7 -23 9 23 c20 48 80 7 80 -55 0 -21 4 -55 9
-75 6 -24 5 -40 -2 -47 -7 -7 -7 -11 -1 -11 11 0 11 -51 0 -68 -3 -6 1 -13 10
-16 11 -4 15 -2 11 8 -6 15 17 16 30 1 5 -4 2 -5 -6 0 -11 6 -13 4 -8 -8 4
-11 1 -15 -13 -12 -10 2 -21 -3 -24 -11 -3 -8 -1 -14 3 -14 5 0 18 -3 28 -7
10 -3 15 -2 10 2 -4 5 0 17 9 26 16 17 15 22 -5 70 -16 36 -23 77 -26 144 l-5
93 50 36 c28 20 54 36 59 36 4 0 16 20 25 44 9 24 26 52 36 61 21 19 26 60 11
84 -6 10 -5 22 4 35 13 17 12 24 -7 58 -12 21 -25 38 -29 38 -4 0 -10 7 -13
16 -5 12 -2 15 11 10 14 -5 15 -4 7 4 -13 13 -7 50 7 50 5 0 9 5 9 12 0 9 -3
9 -12 0 -7 -7 -18 -12 -26 -12 -27 0 -101 41 -107 59 -5 16 -12 19 -40 14 -31
-5 -35 -3 -49 28 -11 27 -15 29 -15 13z"/>
<path d="M941 2518 c-9 -27 -19 -36 -60 -49 -48 -16 -50 -16 -70 5 -12 11 -21
16 -22 11 -2 -31 -9 -51 -22 -60 -42 -32 -64 -53 -81 -79 -11 -17 -21 -24 -25
-18 -4 6 -11 8 -17 4 -16 -10 -24 -62 -10 -62 6 0 4 -5 -4 -10 -8 -5 -10 -10
-5 -10 6 0 3 -6 -5 -13 -27 -22 -35 -109 -14 -154 8 -18 12 -44 10 -59 -5 -28
4 -44 82 -131 20 -24 42 -43 48 -43 6 0 17 -6 23 -14 18 -21 98 -31 164 -20
26 4 37 3 37 -6 0 -9 3 -10 14 -1 7 6 22 8 32 5 11 -4 16 -3 11 1 -7 9 20 45
35 45 4 0 8 -7 8 -16 0 -8 5 -12 11 -9 6 4 8 13 5 20 -3 8 3 19 12 27 16 12
16 11 2 -7 -14 -19 -6 -13 68 52 17 15 20 23 11 28 -7 5 -10 4 -6 -2 3 -5 -1
-10 -10 -10 -12 0 -9 6 10 23 14 12 23 25 20 28 -4 3 -1 6 6 6 7 0 9 5 6 10
-3 6 -2 10 4 10 6 0 7 7 4 17 -4 9 -2 14 3 10 6 -3 9 7 8 26 -1 17 4 49 11 71
8 24 10 46 5 55 -4 9 -10 21 -12 26 -1 6 -6 9 -10 8 -4 -2 -5 6 -3 16 2 10 -3
31 -11 47 -9 16 -13 36 -11 46 5 16 -3 22 -24 20 -3 -1 -21 15 -40 34 -25 26
-29 33 -14 28 17 -6 18 -5 7 7 -7 8 -22 15 -32 15 -37 3 -40 4 -40 19 0 11 -5
12 -25 5 -35 -13 -50 -5 -52 32 -4 47 -19 55 -32 16z"/>
<path d="M2387 2496 c-8 -20 -2 -49 10 -53 6 -2 13 6 16 18 10 37 -13 68 -26
35z"/>
<path d="M1458 2463 c7 -3 16 -2 19 1 4 3 -2 6 -13 5 -11 0 -14 -3 -6 -6z"/>
<path d="M460 2440 c0 -13 7 -20 20 -20 13 0 20 7 20 20 0 13 -7 20 -20 20
-13 0 -20 -7 -20 -20z"/>
<path d="M694 2435 c-10 -8 -15 -15 -10 -15 5 0 3 -7 -4 -15 -7 -8 -10 -15 -7
-15 3 0 15 14 27 30 24 34 23 37 -6 15z"/>
<path d="M1595 2257 c-11 -7 -37 -13 -57 -12 -21 0 -38 -2 -38 -5 0 -3 -52 -6
-114 -6 -131 -2 -154 -6 -134 -28 9 -10 18 -11 32 -4 10 6 38 7 65 3 84 -14
95 -14 108 -3 7 6 13 7 13 3 0 -4 7 -2 16 5 8 8 14 9 13 4 -4 -22 3 -23 38 -4
39 21 68 26 59 12 -3 -5 1 -9 9 -9 13 0 12 4 -2 19 -14 16 -15 18 0 18 9 0 19
5 22 10 9 14 -7 12 -30 -3z"/>
<path d="M300 2240 c0 -13 7 -20 20 -20 13 0 20 7 20 20 0 13 -7 20 -20 20
-13 0 -20 -7 -20 -20z"/>
<path d="M550 2246 c0 -2 7 -9 15 -16 13 -11 14 -10 9 4 -5 14 -24 23 -24 12z"/>
<path d="M555 2160 c-3 -5 -1 -10 4 -10 6 0 11 5 11 10 0 6 -2 10 -4 10 -3 0
-8 -4 -11 -10z"/>
<path d="M2400 2116 c0 -2 7 -7 16 -10 8 -3 12 -2 9 4 -6 10 -25 14 -25 6z"/>
<path d="M2170 2043 c1 -4 17 -18 36 -30 19 -13 32 -19 29 -13 -9 15 -65 52
-65 43z"/>
<path d="M2384 2008 c3 -13 6 -26 6 -30 0 -5 4 -8 8 -8 15 0 12 48 -4 54 -13
5 -15 2 -10 -16z"/>
<path d="M2342 1924 c10 -10 20 -15 24 -12 3 4 -5 12 -18 18 -22 12 -22 12 -6
-6z"/>
<path d="M710 1831 c0 -5 6 -11 13 -14 13 -4 4 -37 -40 -137 -13 -30 -23 -57
-23 -59 1 -2 -2 -7 -7 -10 -5 -3 -22 -42 -38 -86 -34 -95 -27 -85 -56 -90 -27
-5 -59 20 -59 47 0 10 -5 18 -10 18 -6 0 -20 11 -32 25 -14 16 -28 23 -39 20
-10 -4 -31 0 -46 8 -26 14 -30 13 -70 -16 -24 -17 -43 -33 -43 -36 0 -4 -9
-12 -21 -19 -12 -8 -18 -9 -14 -3 3 6 4 11 1 11 -7 0 -46 -85 -46 -101 0 -8
-5 -20 -10 -25 -6 -6 -13 -36 -16 -67 -7 -81 24 -164 77 -203 21 -16 37 -35
34 -42 -3 -7 4 -31 15 -53 11 -21 23 -60 27 -85 5 -36 13 -51 40 -72 79 -61
79 -61 64 -71 -9 -6 -10 -11 -2 -15 6 -4 11 -2 11 4 0 6 5 8 12 4 7 -5 9 -2 4
7 -4 8 -1 6 7 -4 10 -12 17 -15 22 -7 5 7 11 8 19 1 16 -13 84 -22 91 -12 2 5
19 7 36 5 21 -3 47 4 73 19 23 13 46 23 51 22 26 -3 54 -17 59 -30 3 -8 10
-15 15 -15 6 0 23 -12 38 -26 15 -14 43 -32 62 -40 39 -17 41 -17 41 -5 0 5
-17 16 -37 24 -36 15 -82 48 -127 92 -12 11 -24 19 -28 18 -10 -4 -10 9 1 26
5 8 14 10 21 6 8 -5 11 -4 7 2 -3 5 5 22 19 38 13 15 24 36 24 46 0 10 4 20 9
23 5 3 7 19 6 36 -2 28 5 35 29 31 5 -1 1 10 -9 25 -13 21 -15 32 -7 49 11 24
9 34 -27 134 -17 46 -83 121 -107 121 -8 0 -14 5 -14 10 0 6 -3 9 -7 9 -19 -3
-33 2 -33 11 0 5 8 6 18 3 16 -6 16 -6 0 10 -19 19 -54 23 -60 6 -2 -7 -13 -9
-26 -5 l-21 7 19 45 c36 80 59 128 89 181 16 28 26 54 23 57 -3 3 -1 6 4 6 8
0 36 59 39 80 0 3 4 11 8 18 10 15 -1 35 -14 27 -5 -4 -12 1 -15 9 -7 17 -24
22 -24 7z"/>
<path d="M2142 1759 c-18 -29 -15 -41 8 -27 20 13 26 33 12 42 -4 2 -13 -4
-20 -15z"/>
<path d="M596 1673 c-6 -14 -5 -15 5 -6 7 7 10 15 7 18 -3 3 -9 -2 -12 -12z"/>
<path d="M2024 1612 c3 -6 2 -13 -4 -17 -6 -4 -8 -11 -4 -16 7 -12 -29 -49
-48 -49 -18 0 -98 -90 -105 -120 -3 -14 -10 -30 -15 -36 -5 -7 -8 -25 -6 -41
1 -16 -2 -34 -6 -41 -4 -7 -1 -23 8 -37 15 -22 15 -25 -2 -33 -9 -4 -24 -8
-32 -7 -21 1 -30 -16 -19 -37 7 -13 5 -20 -10 -27 -10 -6 -24 -25 -30 -43 -7
-18 -17 -41 -22 -50 -5 -10 -9 -28 -9 -40 0 -13 -5 -30 -10 -38 -6 -10 -5 -22
4 -35 8 -12 16 -37 19 -57 3 -26 16 -48 46 -76 22 -21 41 -36 41 -33 0 3 5 0
11 -6 6 -6 18 -9 25 -6 8 3 14 0 14 -6 0 -6 7 -8 17 -4 12 5 14 3 8 -8 -8 -12
-6 -12 8 0 10 8 20 11 23 9 3 -3 26 2 52 12 38 15 57 30 68 58 1 2 54 -6 144
-23 36 -7 53 -22 43 -39 -4 -5 -1 -6 6 -2 7 5 10 14 7 22 -4 10 6 16 36 20 25
5 53 18 71 35 16 16 33 26 37 24 4 -3 11 2 14 11 3 9 13 14 21 11 9 -4 12 -1
8 9 -3 7 0 14 6 14 6 0 11 7 11 15 0 8 4 15 9 15 5 0 12 14 16 30 4 17 11 28
16 24 12 -7 11 3 -1 25 -7 14 -5 23 10 36 15 14 17 22 9 37 -6 11 -9 32 -6 47
4 16 -5 53 -25 101 -27 67 -36 79 -84 110 -30 19 -57 43 -60 53 -6 18 -16 19
-56 2 -12 -5 -25 7 -52 49 -20 31 -41 56 -47 56 -7 0 -20 10 -30 21 -14 17
-25 20 -51 15 -42 -7 -55 2 -54 38 1 17 -5 31 -13 34 -8 3 -11 0 -7 -6z"/>
<path d="M1868 1533 c-9 -11 -8 -17 3 -24 20 -13 27 -11 48 10 19 19 19 19
-10 23 -18 3 -34 -1 -41 -9z"/>
<path d="M234 1532 c-6 -4 -8 -15 -5 -25 6 -17 8 -18 21 -3 14 18 2 40 -16 28z"/>
<path d="M518 1533 c7 -3 16 -2 19 1 4 3 -2 6 -13 5 -11 0 -14 -3 -6 -6z"/>
<path d="M810 1370 c-8 -5 -12 -12 -9 -15 4 -3 12 1 19 10 14 17 11 19 -10 5z"/>
<path d="M2443 1363 c-15 -5 -17 -23 -4 -23 5 0 11 7 15 15 3 8 4 15 3 14 -1
0 -8 -3 -14 -6z"/>
<path d="M1725 1119 c-4 -6 -5 -12 -2 -15 2 -3 7 2 10 11 7 17 1 20 -8 4z"/>
<path d="M1220 1040 c0 -13 7 -20 20 -20 13 0 20 7 20 20 0 13 -7 20 -20 20
-13 0 -20 -7 -20 -20z"/>
<path d="M245 920 c3 -5 11 -10 16 -10 6 0 7 5 4 10 -3 6 -11 10 -16 10 -6 0
-7 -4 -4 -10z"/>
<path d="M1200 851 c-5 -11 -10 -26 -10 -34 0 -15 -20 -27 -46 -27 -9 0 -13 4
-10 8 2 4 1 14 -5 22 -9 16 -10 14 -13 -29 -1 -7 -17 -25 -36 -40 -18 -14 -30
-20 -26 -13 7 12 4 12 -15 2 -41 -22 -51 -32 -38 -40 16 -11 2 -30 -22 -30
-11 0 -24 -11 -30 -24 -6 -13 -22 -29 -35 -35 -13 -6 -24 -18 -24 -28 0 -9
-14 -32 -32 -50 -18 -18 -27 -33 -21 -33 7 0 11 -9 10 -20 -1 -11 -4 -20 -8
-20 -3 0 -5 -18 -3 -40 2 -26 -2 -42 -11 -47 -25 -14 -20 -143 5 -143 5 0 20
-12 33 -26 20 -21 31 -25 59 -21 19 2 44 9 55 15 17 10 25 7 46 -14 18 -18 27
-21 33 -13 5 8 3 9 -6 4 -9 -5 -11 -4 -6 4 6 9 11 9 22 0 8 -6 33 -14 57 -16
23 -3 50 -10 61 -15 15 -8 24 -5 43 16 27 30 43 33 43 10 0 -12 6 -11 33 7 17
13 34 26 37 29 3 4 13 10 24 13 12 5 17 14 13 27 -3 12 0 20 6 20 7 0 18 15
26 33 19 44 40 67 57 60 8 -3 14 1 15 8 0 8 2 27 2 43 2 23 7 30 25 31 36 3
43 24 20 56 -15 20 -21 45 -22 87 -2 52 -7 65 -34 96 -35 41 -37 47 -20 64 20
20 -4 35 -37 22 -34 -13 -70 1 -78 31 -6 23 -20 24 -41 4 -30 -31 -66 -7 -66
44 0 26 -16 27 -30 2z m-165 -131 c-3 -5 -12 -10 -18 -10 -7 0 -6 4 3 10 19
12 23 12 15 0z"/>
<path d="M1725 820 c-12 -20 -168 -130 -192 -136 -13 -4 -23 -11 -23 -16 0
-10 31 -5 72 12 30 12 164 137 156 145 -3 4 -9 1 -13 -5z"/>
<path d="M2030 740 c0 -5 5 -10 10 -10 6 0 10 5 10 10 0 6 -4 10 -10 10 -5 0
-10 -4 -10 -10z"/>
<path d="M1530 600 c0 -5 5 -10 11 -10 5 0 7 5 4 10 -3 6 -8 10 -11 10 -2 0
-4 -4 -4 -10z"/>
<path d="M1660 320 c0 -13 7 -20 20 -20 13 0 20 7 20 20 0 13 -7 20 -20 20
-13 0 -20 -7 -20 -20z"/>
<path d="M1426 293 c-11 -11 -6 -23 8 -23 8 0 17 4 20 9 7 10 -19 23 -28 14z"/>
<path d="M867 90 c-3 -12 0 -20 8 -20 14 0 27 25 18 34 -11 11 -21 6 -26 -14z"/>
</g>
</svg>
